<svg xmlns="http://www.w3.org/2000/svg" viewBox="4 4 252 264">
  <!-- Hermes mark, traced monochrome from the official hermes-agent logo
       (dblogo.com hermes-agent-logo-white-dark, 800x600 webp source,
       2026-09-13, potrace; IoU 0.97 render round-trip); see also
       hermes-light for light surfaces. -->
  <g transform="translate(0,271) scale(0.1,-0.1)" fill="#ffffff" stroke="none">
    <path d="M1195 2664 c-122 -18 -363 -80 -352 -90 2 -3 38 4 78 16 126 35 254
23 364 -33 59 -30 181 -152 230 -232 56 -90 101 -195 126 -298 19 -73 19 -82
5 -93 -25 -18 -19 -40 14 -54 39 -16 51 -34 13 -19 -54 20 -69 54 -38 85 11
12 12 20 5 35 -9 16 -18 18 -53 13 -23 -4 -50 -11 -59 -16 -24 -12 -23 -45 2
-53 11 -3 20 -15 20 -25 0 -18 -2 -18 -24 3 -16 16 -31 52 -49 126 -15 58 -47
146 -73 199 -61 126 -162 230 -277 287 -72 35 -86 39 -195 46 l-117 7 -101
-48 c-146 -69 -236 -131 -340 -234 -80 -80 -98 -104 -142 -196 -28 -58 -59
-136 -68 -175 -18 -79 -20 -214 -5 -272 23 -85 92 -164 174 -198 51 -21 64
-19 40 8 -11 12 -28 37 -38 55 -15 31 -12 29 38 -20 l55 -54 -14 -149 c-22
-231 -53 -464 -71 -528 -9 -33 -28 -71 -45 -89 -25 -27 -33 -30 -70 -25 -28 4
-51 15 -72 36 -29 30 -31 36 -31 109 0 42 4 86 8 97 5 12 -3 7 -21 -13 -78
-88 -68 -263 19 -337 88 -74 224 -40 309 77 33 45 38 40 15 -16 -22 -52 -90
-123 -132 -137 -48 -15 -112 -4 -166 31 -53 33 -73 61 -98 133 -17 51 -18 51
-18 17 -1 -54 23 -135 52 -178 29 -41 96 -88 160 -112 33 -12 42 -22 50 -50
32 -127 209 -151 305 -41 l23 26 -6 -30 c-10 -50 -60 -149 -95 -188 l-32 -37
146 0 c128 0 152 3 187 21 l40 20 -12 -23 -12 -23 27 24 c26 24 26 24 26 3 0
-34 35 -27 59 11 28 43 71 90 77 84 3 -2 -16 -29 -41 -58 l-46 -54 33 -3 c30
-4 39 3 98 67 63 69 88 87 76 56 -5 -13 -1 -13 27 1 17 9 50 29 72 44 53 36
220 130 230 130 5 0 -18 -29 -51 -64 -81 -87 -188 -213 -192 -225 -2 -6 9 -11
25 -11 25 0 32 9 71 85 24 47 63 105 86 128 42 43 142 99 201 112 24 5 18 -1
-30 -33 -79 -52 -182 -164 -194 -211 -18 -68 -17 -76 6 -79 16 -2 25 5 37 30
25 53 178 210 232 240 67 36 164 45 241 23 51 -14 68 -27 139 -99 44 -45 89
-101 100 -124 21 -45 44 -55 45 -19 l0 22 10 -23 c12 -30 29 -19 29 19 0 47
15 65 83 101 80 42 171 132 202 200 49 108 51 247 4 344 -22 46 -69 97 -55 59
22 -56 28 -97 24 -172 -4 -72 -10 -93 -46 -165 -37 -75 -131 -198 -152 -198
-4 0 12 30 36 66 69 102 89 182 88 339 -2 128 -3 135 -83 448 -45 174 -101
417 -126 540 -47 238 -71 321 -133 466 -59 135 -98 196 -182 282 -118 120
-227 182 -407 229 -76 20 -238 33 -298 24z m777 -356 c12 -17 17 -28 10 -24
-9 5 -12 -6 -12 -40 0 -26 -3 -44 -7 -41 -3 4 -14 -5 -23 -21 -12 -19 -15 -34
-9 -50 15 -40 10 -48 -10 -16 -23 38 -48 57 -37 28 18 -43 16 -47 -4 -11 -20
36 -23 38 -39 23 -17 -16 -22 -15 -70 3 -55 22 -58 20 -36 -19 19 -33 19 -46
0 -30 -8 7 -15 9 -15 5 0 -4 -14 5 -31 19 -17 14 -39 26 -49 26 -10 0 -22 5
-25 10 -4 6 8 10 29 10 32 0 36 3 36 25 0 24 0 25 19 6 28 -28 89 -36 112 -15
11 10 18 22 16 28 -6 17 20 37 37 30 19 -7 20 0 4 29 -9 18 -6 17 22 -7 30
-24 34 -26 43 -11 5 9 6 32 2 52 -7 41 3 38 37 -9z m-712 -6 c30 17 30 17 54
-15 13 -18 31 -47 40 -65 9 -18 21 -30 27 -26 13 7 39 -14 39 -32 0 -8 -8 -14
-19 -14 -12 0 -31 22 -55 60 -39 63 -56 69 -56 20 0 -41 -10 -60 -31 -60 -10
0 -19 -4 -19 -10 0 -16 -64 1 -82 22 -16 18 -16 21 0 53 9 19 25 37 35 41 13
4 16 12 12 27 -6 22 -6 22 10 2 15 -19 17 -19 45 -3z m-121 -132 c39 -75 47
-102 27 -94 -11 4 -16 0 -17 -12 -1 -17 -2 -17 -6 -1 -7 27 -23 20 -23 -10 l0
-28 -20 30 c-12 18 -20 24 -20 14 0 -11 -10 -15 -42 -13 -58 2 -94 18 -101 44
-4 17 1 24 26 35 17 7 36 11 43 8 6 -2 20 7 31 21 16 20 23 22 33 13 10 -10
11 -7 7 13 -3 14 -8 41 -12 60 l-6 35 25 -30 c14 -16 39 -55 55 -85z m-564
-33 c-19 -48 -35 -91 -35 -97 0 -5 -4 -10 -10 -10 -5 0 -10 9 -10 20 0 27 -16
25 -46 -5 -46 -46 -54 -24 -17 48 16 32 23 35 16 7 -3 -11 -2 -20 1 -20 22 0
49 27 86 86 23 36 43 64 45 62 2 -2 -11 -43 -30 -91z m-236 37 c-17 -25 -49
-82 -70 -127 -22 -45 -37 -73 -33 -62 4 11 7 35 6 54 -1 46 29 102 79 145 24
20 44 36 46 36 2 0 -10 -21 -28 -46z m431 -54 c0 -46 -3 -58 -15 -56 -8 1 -17
5 -21 8 -3 4 -18 3 -32 -2 -102 -32 -143 -17 -121 44 11 30 15 33 32 24 68
-36 121 -28 132 21 10 49 25 26 25 -39z m1194 54 c3 -8 2 -12 -4 -9 -6 3 -10
10 -10 16 0 14 7 11 14 -7z m-1074 -14 c12 0 20 -11 24 -36 4 -19 10 -43 13
-52 6 -14 4 -15 -8 -5 -8 6 -38 13 -67 14 -51 3 -52 4 -62 38 -15 53 -14 54
36 47 26 -3 55 -6 64 -6z m-505 -20 c5 -8 12 -7 23 2 13 12 14 10 4 -9 -16
-29 -15 -32 8 -26 24 6 25 1 4 -53 -20 -52 -49 -64 -62 -25 l-9 26 -17 -30
c-9 -16 -15 -22 -12 -12 4 13 0 17 -19 17 -31 0 -31 9 0 70 20 39 31 50 50 50
13 0 27 -5 30 -10z m491 -340 c21 -41 40 -78 42 -82 2 -5 -5 -8 -16 -8 -22 0
-41 39 -73 150 -21 74 -24 103 -5 50 7 -19 31 -69 52 -110z m648 45 c-9 -14
-18 -25 -21 -25 -5 0 5 18 20 38 17 22 18 13 1 -13z m365 -105 c0 -9 -4 -8 -9
5 -5 11 -9 27 -9 35 0 9 4 8 9 -5 5 -11 9 -27 9 -35z m-1170 -84 c55 11 58 9
36 -20 -28 -37 -15 -35 70 9 47 25 91 45 99 45 7 0 21 -9 31 -20 16 -17 31
-20 112 -20 89 0 95 1 101 22 5 21 6 21 12 2 5 -13 22 -22 56 -30 l49 -10 3
-112 c3 -114 0 -135 -58 -467 -23 -125 -33 -218 -34 -303 -2 -117 -4 -124 -28
-149 l-26 -25 -34 53 c-19 30 -51 72 -71 93 -37 39 -37 39 -95 32 -31 -4 -98
-9 -148 -13 -90 -6 -91 -5 -122 23 -35 32 -127 197 -161 289 -21 56 -42 215
-28 215 14 0 76 -76 77 -92 0 -9 -5 -28 -11 -41 -9 -19 -7 -31 5 -55 9 -17 16
-43 16 -57 0 -15 11 -36 26 -50 24 -22 26 -23 42 -7 16 16 16 17 -8 20 -32 4
-45 17 -34 33 5 9 9 8 15 -7 7 -18 8 -18 15 4 6 19 12 23 43 20 22 -2 35 -8
33 -15 -3 -16 -3 -16 37 -2 32 11 42 29 16 29 -9 0 -39 12 -68 26 -29 15 -64
27 -79 26 -30 -1 -43 21 -33 60 5 19 -2 35 -29 66 -53 64 -55 79 -12 118 21
19 46 54 57 79 17 39 19 51 9 80 -6 19 -21 43 -33 53 -12 10 -27 27 -34 39
-11 19 -9 22 33 32 24 6 44 16 44 22 0 5 -9 27 -20 49 -11 22 -20 41 -20 44 0
2 22 -19 49 -47 l49 -51 51 10z m1200 -16 c0 -9 -4 -8 -9 5 -5 11 -9 27 -9 35
0 9 4 8 9 -5 5 -11 9 -27 9 -35z m29 -100 c0 -8 -6 1 -13 20 -7 19 -13 42 -13
50 0 8 6 -1 13 -20 7 -19 13 -42 13 -50z m-1438 42 c0 -4 12 -15 28 -24 l27
-17 -32 -1 c-18 0 -33 -4 -33 -10 0 -19 -29 -10 -41 12 -10 18 -8 24 7 35 20
14 44 17 44 5z m1200 -50 c21 -17 19 -17 -64 -17 -47 0 -86 3 -86 7 0 30 115
38 150 10z m-1134 -16 c10 -8 17 -17 14 -19 -3 -3 -16 3 -29 14 -27 22 -15 26
15 5z m1402 -76 c0 -8 -6 1 -13 20 -7 19 -13 42 -13 50 0 8 6 -1 13 -20 7 -19
13 -42 13 -50z m-1454 13 c3 -16 8 -38 12 -50 5 -17 2 -23 -9 -23 -18 0 -27
21 -27 66 0 41 15 45 24 7z m1489 -133 c4 -19 -2 -8 -13 25 -11 33 -19 65 -19
70 1 16 26 -57 32 -95z m14 -62 c-3 -8 -6 -5 -6 6 -1 11 2 17 5 13 3 -3 4 -12
1 -19z m10 -40 c-3 -8 -6 -5 -6 6 -1 11 2 17 5 13 3 -3 4 -12 1 -19z m10 -50
c-3 -8 -6 -5 -6 6 -1 11 2 17 5 13 3 -3 4 -12 1 -19z m-1407 -84 c0 -2 -9 -4
-21 -4 -11 0 -18 4 -14 10 5 8 35 3 35 -6z m854 -146 l6 -86 -50 -31 c-28 -17
-50 -29 -50 -28 0 3 66 201 75 226 9 23 12 10 19 -81z m793 -67 c20 -88 11
-169 -27 -246 -28 -59 -94 -136 -75 -90 41 103 48 152 49 322 l1 171 18 -46
c10 -25 25 -75 34 -111z m-762 -157 c6 -38 4 -43 -25 -68 -44 -36 -85 -35
-105 4 -8 16 -15 32 -15 35 0 11 124 85 131 78 4 -5 10 -26 14 -49z m-273
-198 c16 -27 53 -63 97 -94 l71 -50 -42 -32 c-57 -42 -244 -133 -258 -125 -5
3 -10 11 -10 17 0 5 -23 48 -51 95 -28 46 -49 85 -48 87 2 1 22 8 44 14 27 8
60 31 100 72 33 33 62 60 65 60 3 0 17 -20 32 -44z m-682 -47 c-18 -66 -61
-140 -95 -161 -39 -23 -96 -23 -126 0 l-22 19 54 7 c29 4 68 16 86 27 32 20
85 94 98 137 12 42 17 15 5 -29z m1455 -128 c70 -31 175 -164 174 -221 0 -8
-6 0 -14 18 -35 81 -128 164 -233 209 l-57 24 45 -7 c25 -3 63 -14 85 -23z"/>
  </g>
</svg>
